PathFileType	4	(X/Y/Z)	C:\Users\WrightLab\Desktop\Jo\P4V122.trc
DataRate	CameraRate	NumFrames	NumMarkers	Units	OrigDataRate	OrigDataStartFrame	OrigNumFrames
100.00	100.00	       8	19	mm	100.00	475	       633
Frame#	Time	Headset_Front			Headset_Back			Headset_Left			Headset_Right			Left_Shoulder			Right_Shoulder			Sternum			C7			Left Elbow			Right Elbow			Left Wrist			Right Wrist			Left ASIS			Right ASIS			S2			Left Knee			Right Knee			Left Ankle			Right Ankle			
		X1	Y1	Z1	X2	Y2	Z2	X3	Y3	Z3	X4	Y4	Z4	X5	Y5	Z5	X6	Y6	Z6	X7	Y7	Z7	X8	Y8	Z8	X9	Y9	Z9	X10	Y10	Z10	X11	Y11	Z11	X12	Y12	Z12	X13	Y13	Z13	X14	Y14	Z14	X15	Y15	Z15	X16	Y16	Z16	X17	Y17	Z17	X18	Y18	Z18	X19	Y19	Z19	

475	4.740	8.71587	1742.00830	1978.79688	-169.44704	1219.08521	1680.96423							232.46310	1577.23303	1855.54724	-43.63168	1569.36169	1725.57068	61.92691	1510.68677	1894.20605				367.95557	1242.65100	1964.00879				290.87744	986.81335	2124.03149	-248.16287	967.12762	1839.11267	230.69713	1081.13745	1928.41211	-91.28027	1080.10083	1838.64771				229.65498	587.97595	1910.59009	-156.35498	641.49194	1967.89294	195.10843	97.54736	1797.65906	-19.29516	161.81764	1824.83459	
476	4.750	6.08501	1741.94202	1986.96008	-170.09415	1219.11902	1687.60657							230.26967	1576.93335	1863.23950	-45.12415	1569.65601	1732.51172	60.01273	1511.19910	1901.87659				364.69666	1242.56482	1974.81226				283.89182	990.89746	2138.75098	-249.24078	966.49731	1844.26501	229.00386	1080.90186	1935.45728	-92.53401	1079.62903	1845.88928				228.32066	588.84479	1913.86011	-156.85095	640.10132	1972.97180	195.44452	96.96178	1798.53442	-27.86639	150.78020	1851.64185	
477	4.760	3.84280	1741.13782	1993.02539	-170.94066	1218.85803	1694.13831							229.07895	1576.63501	1869.96619	-46.13658	1568.99390	1738.93958	57.95583	1510.78516	1908.81018				360.68741	1243.17163	1984.55957				276.01770	994.19482	2151.61670	-249.95868	965.35681	1849.23535	226.86920	1080.11145	1941.21863	-94.26306	1079.24927	1851.77844				227.95740	588.22070	1915.08447	-157.01447	638.07776	1977.67859	195.51138	96.99282	1798.48462	-36.89377	143.09084	1874.30103	
478	4.770	1.63673	1741.23401	2000.54236	-171.91336	1218.36206	1699.67883							227.79646	1576.28943	1876.06445	-48.17969	1568.67712	1745.60657	55.94395	1510.71021	1915.62207				357.27020	1242.57800	1994.27698				269.55756	997.57178	2164.49414	-251.02922	964.03668	1854.11865	224.73660	1079.97449	1949.53394	-96.99205	1078.26111	1857.90967				226.65318	588.80884	1918.40271	-156.83427	635.40845	1981.28699	195.46286	97.00002	1798.53040	-46.22581	134.48517	1901.33594	
479	4.780	-0.91596	1740.93652	2006.81824	-172.90463	1217.77832	1706.33679							225.65479	1575.92627	1883.90234	-49.60610	1569.43079	1752.65710	54.05879	1510.50916	1923.19849				353.49927	1242.80579	2003.43982				262.07449	1000.99054	2176.17163	-252.18855	962.17865	1857.93494	222.46024	1079.37769	1955.37915	-98.32848	1077.55249	1864.31287				225.93228	588.33215	1922.01807	-156.18629	632.49976	1985.28406	195.17787	97.61376	1797.64832	-54.92809	126.65697	1926.34131	
480	4.790	-3.37503	1740.65503	2013.21143	-174.20624	1217.39636	1711.72192							223.37740	1575.31934	1890.71838	-51.96378	1568.64807	1759.62305	51.56611	1509.80579	1929.22681				349.66586	1242.23413	2010.90869				254.65730	1003.80981	2187.93286	-252.83588	960.49695	1863.19946	220.44160	1078.71277	1962.64929	-100.53773	1077.01453	1871.45667				225.44144	587.81769	1922.90649	-155.36119	629.24823	1988.30359	195.14717	97.59660	1797.66040	-64.39221	120.90616	1947.22400	
481	4.800	-5.64509	1740.36475	2020.50732	-175.52419	1216.83569	1718.82556							221.47742	1575.46948	1898.41187	-54.14050	1568.23816	1766.36499	49.65710	1509.91162	1937.81836				346.39767	1241.88965	2020.88538				247.13138	1008.10413	2201.15234	-253.69673	959.50848	1868.90344	218.29698	1078.06030	1969.79028	-103.30405	1075.51660	1877.55566				225.20668	587.68341	1925.73157	-154.38658	626.01324	1991.75110	195.18187	97.61530	1797.64624	-73.56710	115.30270	1974.31299	
482	4.810	-7.93811	1739.68091	2026.05017	-176.96049	1216.16748	1725.47742							218.77158	1574.39294	1904.40759	-56.09730	1567.75488	1773.77991	47.43393	1509.00903	1943.61829				342.92624	1241.63428	2029.87000				240.46521	1010.61963	2211.45093	-254.53461	956.66412	1872.32690	215.40602	1077.04822	1975.61353	-105.73895	1073.47961	1883.76062				223.55122	586.77277	1928.10132	-153.70235	622.28607	1995.11926	195.18604	97.64164	1797.65918	-83.33241	112.42457	1994.47351	
